<?xml version="1.0" encoding="UTF-8" standalone="no"?>
<!DOCTYPE svg PUBLIC "-//W3C//DTD SVG 1.1//EN"
 "http://www.w3.org/Graphics/SVG/1.1/DTD/svg11.dtd">
<!-- Generated by graphviz version 2.43.0 (0)
 -->
<!-- Title: %3 Pages: 1 -->
<svg width="1315pt" height="601pt"
 viewBox="0.00 0.00 1314.50 601.00" xmlns="http://www.w3.org/2000/svg" xmlns:xlink="http://www.w3.org/1999/xlink">
<g id="graph0" class="graph" transform="scale(1 1) rotate(0) translate(4 597)">
<title>%3</title>
<polygon fill="white" stroke="transparent" points="-4,4 -4,-597 1310.5,-597 1310.5,4 -4,4"/>
<!-- 1 -->
<g id="node1" class="node">
<title>1</title>
<polygon fill="#f63c01" stroke="#f63c01" points="624.5,-512 467.5,-512 467.5,-460 624.5,-460 624.5,-512"/>
<text text-anchor="middle" x="546" y="-500" font-family="Arial" font-size="10.00" fill="#ffffff">callBack(Interface const*, void*)</text>
<text text-anchor="middle" x="546" y="-489" font-family="Arial" font-size="10.00" fill="#ffffff">94.03%</text>
<text text-anchor="middle" x="546" y="-478" font-family="Arial" font-size="10.00" fill="#ffffff">(0.00%)</text>
<text text-anchor="middle" x="546" y="-467" font-family="Arial" font-size="10.00" fill="#ffffff">479×</text>
</g>
<!-- 3 -->
<g id="node2" class="node">
<title>3</title>
<polygon fill="#eb7c03" stroke="#eb7c03" points="592,-420 500,-420 500,-368 592,-368 592,-420"/>
<text text-anchor="middle" x="546" y="-408" font-family="Arial" font-size="10.00" fill="#ffffff">Game::advance()</text>
<text text-anchor="middle" x="546" y="-397" font-family="Arial" font-size="10.00" fill="#ffffff">86.96%</text>
<text text-anchor="middle" x="546" y="-386" font-family="Arial" font-size="10.00" fill="#ffffff">(0.00%)</text>
<text text-anchor="middle" x="546" y="-375" font-family="Arial" font-size="10.00" fill="#ffffff">479×</text>
</g>
<!-- 1&#45;&gt;3 -->
<g id="edge1" class="edge">
<title>1&#45;&gt;3</title>
<path fill="none" stroke="#eb7c03" stroke-width="3.48" d="M546,-459.93C546,-450.55 546,-439.72 546,-429.63"/>
<polygon fill="#eb7c03" stroke="#eb7c03" stroke-width="3.48" points="549.26,-429.55 546,-420.25 542.75,-429.55 549.26,-429.55"/>
<text text-anchor="middle" x="563" y="-443" font-family="Arial" font-size="10.00" fill="#eb7c03">86.96%</text>
<text text-anchor="middle" x="563" y="-432" font-family="Arial" font-size="10.00" fill="#eb7c03">479×</text>
</g>
<!-- 8 -->
<g id="node3" class="node">
<title>8</title>
<polygon fill="#0d297b" stroke="#0d297b" points="917,-420 769,-420 769,-368 917,-368 917,-420"/>
<text text-anchor="middle" x="843" y="-408" font-family="Arial" font-size="10.00" fill="#ffffff">Game::draw(Interface const&amp;)</text>
<text text-anchor="middle" x="843" y="-397" font-family="Arial" font-size="10.00" fill="#ffffff">6.47%</text>
<text text-anchor="middle" x="843" y="-386" font-family="Arial" font-size="10.00" fill="#ffffff">(0.00%)</text>
<text text-anchor="middle" x="843" y="-375" font-family="Arial" font-size="10.00" fill="#ffffff">479×</text>
</g>
<!-- 1&#45;&gt;8 -->
<g id="edge2" class="edge">
<title>1&#45;&gt;8</title>
<path fill="none" stroke="#0d297b" stroke-width="0.5" d="M624.81,-461.12C668.36,-447.92 722.24,-431.59 765.57,-418.46"/>
<polygon fill="#0d297b" stroke="#0d297b" stroke-width="0.5" points="765.94,-419.63 768.93,-417.44 765.23,-417.29 765.94,-419.63"/>
<text text-anchor="middle" x="743" y="-443" font-family="Arial" font-size="10.00" fill="#0d297b">6.47%</text>
<text text-anchor="middle" x="743" y="-432" font-family="Arial" font-size="10.00" fill="#0d297b">479×</text>
</g>
<!-- 21 -->
<g id="node4" class="node">
<title>21</title>
<polygon fill="#0d0f74" stroke="#0d0f74" points="437.5,-420 260.5,-420 260.5,-368 437.5,-368 437.5,-420"/>
<text text-anchor="middle" x="349" y="-408" font-family="Arial" font-size="10.00" fill="#ffffff">Game::handleInput(Interface const&amp;)</text>
<text text-anchor="middle" x="349" y="-397" font-family="Arial" font-size="10.00" fill="#ffffff">0.60%</text>
<text text-anchor="middle" x="349" y="-386" font-family="Arial" font-size="10.00" fill="#ffffff">(0.00%)</text>
<text text-anchor="middle" x="349" y="-375" font-family="Arial" font-size="10.00" fill="#ffffff">479×</text>
</g>
<!-- 1&#45;&gt;21 -->
<g id="edge3" class="edge">
<title>1&#45;&gt;21</title>
<path fill="none" stroke="#0d0f74" stroke-width="0.5" d="M491.12,-459.93C464.98,-447.98 433.69,-433.69 407.14,-421.56"/>
<polygon fill="#0d0f74" stroke="#0d0f74" stroke-width="0.5" points="407.62,-420.43 403.92,-420.09 406.6,-422.66 407.62,-420.43"/>
<text text-anchor="middle" x="485" y="-443" font-family="Arial" font-size="10.00" fill="#0d0f74">0.60%</text>
<text text-anchor="middle" x="485" y="-432" font-family="Arial" font-size="10.00" fill="#0d0f74">479×</text>
</g>
<!-- 4 -->
<g id="node6" class="node">
<title>4</title>
<polygon fill="#ea8203" stroke="#ea8203" points="609,-328 483,-328 483,-276 609,-276 609,-328"/>
<text text-anchor="middle" x="546" y="-316" font-family="Arial" font-size="10.00" fill="#ffffff">Game::handleCollisions()</text>
<text text-anchor="middle" x="546" y="-305" font-family="Arial" font-size="10.00" fill="#ffffff">86.30%</text>
<text text-anchor="middle" x="546" y="-294" font-family="Arial" font-size="10.00" fill="#ffffff">(1.49%)</text>
<text text-anchor="middle" x="546" y="-283" font-family="Arial" font-size="10.00" fill="#ffffff">479×</text>
</g>
<!-- 3&#45;&gt;4 -->
<g id="edge5" class="edge">
<title>3&#45;&gt;4</title>
<path fill="none" stroke="#ea8203" stroke-width="3.45" d="M546,-367.93C546,-358.55 546,-347.72 546,-337.63"/>
<polygon fill="#ea8203" stroke="#ea8203" stroke-width="3.45" points="549.26,-337.55 546,-328.25 542.75,-337.55 549.26,-337.55"/>
<text text-anchor="middle" x="563" y="-351" font-family="Arial" font-size="10.00" fill="#ea8203">86.30%</text>
<text text-anchor="middle" x="563" y="-340" font-family="Arial" font-size="10.00" fill="#ea8203">479×</text>
</g>
<!-- 15 -->
<g id="node8" class="node">
<title>15</title>
<polygon fill="#0d1375" stroke="#0d1375" points="740,-236 600,-236 600,-184 740,-184 740,-236"/>
<text text-anchor="middle" x="670" y="-224" font-family="Arial" font-size="10.00" fill="#ffffff">FlyingObject::isAlive() const</text>
<text text-anchor="middle" x="670" y="-213" font-family="Arial" font-size="10.00" fill="#ffffff">1.49%</text>
<text text-anchor="middle" x="670" y="-202" font-family="Arial" font-size="10.00" fill="#ffffff">(1.49%)</text>
<text text-anchor="middle" x="670" y="-191" font-family="Arial" font-size="10.00" fill="#ffffff">330785×</text>
</g>
<!-- 8&#45;&gt;15 -->
<g id="edge13" class="edge">
<title>8&#45;&gt;15</title>
<path fill="none" stroke="#0d0f73" stroke-width="0.5" d="M793.98,-367.98C775.97,-357.26 756.27,-343.61 741,-328 715.4,-301.83 694.89,-264.78 682.63,-239.42"/>
<polygon fill="#0d0f73" stroke="#0d0f73" stroke-width="0.5" points="683.64,-238.71 681.02,-236.08 681.43,-239.77 683.64,-238.71"/>
<text text-anchor="middle" x="760" y="-305" font-family="Arial" font-size="10.00" fill="#0d0f73">0.50%</text>
<text text-anchor="middle" x="760" y="-294" font-family="Arial" font-size="10.00" fill="#0d0f73">109800×</text>
</g>
<!-- 10 -->
<g id="node12" class="node">
<title>10</title>
<polygon fill="#0d1976" stroke="#0d1976" points="1223,-328 1113,-328 1113,-276 1223,-276 1223,-328"/>
<text text-anchor="middle" x="1168" y="-316" font-family="Arial" font-size="10.00" fill="#ffffff">SmallAsteroid::draw()</text>
<text text-anchor="middle" x="1168" y="-305" font-family="Arial" font-size="10.00" fill="#ffffff">2.81%</text>
<text text-anchor="middle" x="1168" y="-294" font-family="Arial" font-size="10.00" fill="#ffffff">(1.49%)</text>
<text text-anchor="middle" x="1168" y="-283" font-family="Arial" font-size="10.00" fill="#ffffff">49600×</text>
</g>
<!-- 8&#45;&gt;10 -->
<g id="edge11" class="edge">
<title>8&#45;&gt;10</title>
<path fill="none" stroke="#0d1976" stroke-width="0.5" d="M917.11,-374.33C936.01,-369.45 956.28,-364.12 975,-359 1020.15,-346.64 1070.99,-331.85 1109.15,-320.58"/>
<polygon fill="#0d1976" stroke="#0d1976" stroke-width="0.5" points="1109.79,-321.66 1112.8,-319.5 1109.1,-319.32 1109.79,-321.66"/>
<text text-anchor="middle" x="1065.5" y="-351" font-family="Arial" font-size="10.00" fill="#0d1976">2.81%</text>
<text text-anchor="middle" x="1065.5" y="-340" font-family="Arial" font-size="10.00" fill="#0d1976">49600×</text>
</g>
<!-- 14 -->
<g id="node13" class="node">
<title>14</title>
<polygon fill="#0d1776" stroke="#0d1776" points="903,-328 783,-328 783,-276 903,-276 903,-328"/>
<text text-anchor="middle" x="843" y="-316" font-family="Arial" font-size="10.00" fill="#ffffff">MediumAsteroid::draw()</text>
<text text-anchor="middle" x="843" y="-305" font-family="Arial" font-size="10.00" fill="#ffffff">2.48%</text>
<text text-anchor="middle" x="843" y="-294" font-family="Arial" font-size="10.00" fill="#ffffff">(0.00%)</text>
<text text-anchor="middle" x="843" y="-283" font-family="Arial" font-size="10.00" fill="#ffffff">30461×</text>
</g>
<!-- 8&#45;&gt;14 -->
<g id="edge12" class="edge">
<title>8&#45;&gt;14</title>
<path fill="none" stroke="#0d1776" stroke-width="0.5" d="M843,-367.93C843,-356.71 843,-343.42 843,-331.8"/>
<polygon fill="#0d1776" stroke="#0d1776" stroke-width="0.5" points="844.23,-331.75 843,-328.25 841.78,-331.75 844.23,-331.75"/>
<text text-anchor="middle" x="859.5" y="-351" font-family="Arial" font-size="10.00" fill="#0d1776">2.48%</text>
<text text-anchor="middle" x="859.5" y="-340" font-family="Arial" font-size="10.00" fill="#0d1776">30461×</text>
</g>
<!-- 26 -->
<g id="node14" class="node">
<title>26</title>
<polygon fill="#0d0f74" stroke="#0d0f74" points="1055,-328 945,-328 945,-276 1055,-276 1055,-328"/>
<text text-anchor="middle" x="1000" y="-316" font-family="Arial" font-size="10.00" fill="#ffffff">LargeAsteroid::draw()</text>
<text text-anchor="middle" x="1000" y="-305" font-family="Arial" font-size="10.00" fill="#ffffff">0.67%</text>
<text text-anchor="middle" x="1000" y="-294" font-family="Arial" font-size="10.00" fill="#ffffff">(0.00%)</text>
<text text-anchor="middle" x="1000" y="-283" font-family="Arial" font-size="10.00" fill="#ffffff">20442×</text>
</g>
<!-- 8&#45;&gt;26 -->
<g id="edge14" class="edge">
<title>8&#45;&gt;26</title>
<path fill="none" stroke="#0d0f74" stroke-width="0.5" d="M886.73,-367.93C907.4,-356.08 932.1,-341.92 953.15,-329.86"/>
<polygon fill="#0d0f74" stroke="#0d0f74" stroke-width="0.5" points="953.8,-330.89 956.23,-328.09 952.58,-328.77 953.8,-330.89"/>
<text text-anchor="middle" x="956.5" y="-351" font-family="Arial" font-size="10.00" fill="#0d0f74">0.67%</text>
<text text-anchor="middle" x="956.5" y="-340" font-family="Arial" font-size="10.00" fill="#0d0f74">20442×</text>
</g>
<!-- 22 -->
<g id="node23" class="node">
<title>22</title>
<polygon fill="#0d0f74" stroke="#0d0f74" points="136.5,-328 29.5,-328 29.5,-276 136.5,-276 136.5,-328"/>
<text text-anchor="middle" x="83" y="-316" font-family="Arial" font-size="10.00" fill="#ffffff">Game::createBullet()</text>
<text text-anchor="middle" x="83" y="-305" font-family="Arial" font-size="10.00" fill="#ffffff">0.60%</text>
<text text-anchor="middle" x="83" y="-294" font-family="Arial" font-size="10.00" fill="#ffffff">(0.00%)</text>
<text text-anchor="middle" x="83" y="-283" font-family="Arial" font-size="10.00" fill="#ffffff">479×</text>
</g>
<!-- 21&#45;&gt;22 -->
<g id="edge20" class="edge">
<title>21&#45;&gt;22</title>
<path fill="none" stroke="#0d0f74" stroke-width="0.5" d="M261.79,-367.96C224.31,-356.63 180.2,-342.53 141,-328 140.64,-327.87 140.28,-327.73 139.92,-327.6"/>
<polygon fill="#0d0f74" stroke="#0d0f74" stroke-width="0.5" points="140.35,-326.45 136.64,-326.35 139.48,-328.74 140.35,-326.45"/>
<text text-anchor="middle" x="246" y="-351" font-family="Arial" font-size="10.00" fill="#0d0f74">0.60%</text>
<text text-anchor="middle" x="246" y="-340" font-family="Arial" font-size="10.00" fill="#0d0f74">479×</text>
</g>
<!-- 2 -->
<g id="node5" class="node">
<title>2</title>
<polygon fill="#f63c01" stroke="#f63c01" points="587,-593 505,-593 505,-552 587,-552 587,-593"/>
<text text-anchor="middle" x="546" y="-581" font-family="Arial" font-size="10.00" fill="#ffffff">drawCallback()</text>
<text text-anchor="middle" x="546" y="-570" font-family="Arial" font-size="10.00" fill="#ffffff">94.03%</text>
<text text-anchor="middle" x="546" y="-559" font-family="Arial" font-size="10.00" fill="#ffffff">(0.00%)</text>
</g>
<!-- 2&#45;&gt;1 -->
<g id="edge4" class="edge">
<title>2&#45;&gt;1</title>
<path fill="none" stroke="#f63c01" stroke-width="3.76" d="M546,-551.9C546,-543.05 546,-532.32 546,-522.15"/>
<polygon fill="#f63c01" stroke="#f63c01" stroke-width="3.76" points="549.4,-521.97 546,-512.27 542.61,-521.97 549.4,-521.97"/>
<text text-anchor="middle" x="563" y="-535" font-family="Arial" font-size="10.00" fill="#f63c01">94.03%</text>
<text text-anchor="middle" x="563" y="-524" font-family="Arial" font-size="10.00" fill="#f63c01">479×</text>
</g>
<!-- 5 -->
<g id="node7" class="node">
<title>5</title>
<polygon fill="#e69904" stroke="#e69904" points="590.5,-236 285.5,-236 285.5,-184 590.5,-184 590.5,-236"/>
<text text-anchor="middle" x="438" y="-224" font-family="Arial" font-size="10.00" fill="#ffffff">Game::getCollision(FlyingObject const&amp;, FlyingObject const&amp;, int)</text>
<text text-anchor="middle" x="438" y="-213" font-family="Arial" font-size="10.00" fill="#ffffff">83.58%</text>
<text text-anchor="middle" x="438" y="-202" font-family="Arial" font-size="10.00" fill="#ffffff">(1.49%)</text>
<text text-anchor="middle" x="438" y="-191" font-family="Arial" font-size="10.00" fill="#ffffff">2027670×</text>
</g>
<!-- 4&#45;&gt;5 -->
<g id="edge6" class="edge">
<title>4&#45;&gt;5</title>
<path fill="none" stroke="#e69904" stroke-width="3.34" d="M515.92,-275.93C503.38,-265.49 488.69,-253.25 475.47,-242.23"/>
<polygon fill="#e69904" stroke="#e69904" stroke-width="3.34" points="477.33,-239.63 468.3,-236.25 473.25,-244.52 477.33,-239.63"/>
<text text-anchor="middle" x="526.5" y="-259" font-family="Arial" font-size="10.00" fill="#e69904">83.58%</text>
<text text-anchor="middle" x="526.5" y="-248" font-family="Arial" font-size="10.00" fill="#e69904">2027670×</text>
</g>
<!-- 4&#45;&gt;15 -->
<g id="edge7" class="edge">
<title>4&#45;&gt;15</title>
<path fill="none" stroke="#0d0f73" stroke-width="0.5" d="M580.54,-275.93C596.66,-264.23 615.89,-250.27 632.38,-238.3"/>
<polygon fill="#0d0f73" stroke="#0d0f73" stroke-width="0.5" points="633.1,-239.3 635.21,-236.25 631.66,-237.31 633.1,-239.3"/>
<text text-anchor="middle" x="641" y="-259" font-family="Arial" font-size="10.00" fill="#0d0f73">0.46%</text>
<text text-anchor="middle" x="641" y="-248" font-family="Arial" font-size="10.00" fill="#0d0f73">100977×</text>
</g>
<!-- 6 -->
<g id="node9" class="node">
<title>6</title>
<polygon fill="#e4a504" stroke="#e4a504" points="613.5,-144 262.5,-144 262.5,-92 613.5,-92 613.5,-144"/>
<text text-anchor="middle" x="438" y="-132" font-family="Arial" font-size="10.00" fill="#ffffff">Game::getClosestDistance(FlyingObject const&amp;, FlyingObject const&amp;) const</text>
<text text-anchor="middle" x="438" y="-121" font-family="Arial" font-size="10.00" fill="#ffffff">82.09%</text>
<text text-anchor="middle" x="438" y="-110" font-family="Arial" font-size="10.00" fill="#ffffff">(71.64%)</text>
<text text-anchor="middle" x="438" y="-99" font-family="Arial" font-size="10.00" fill="#ffffff">2027670×</text>
</g>
<!-- 5&#45;&gt;6 -->
<g id="edge8" class="edge">
<title>5&#45;&gt;6</title>
<path fill="none" stroke="#e4a504" stroke-width="3.28" d="M438,-183.93C438,-174.55 438,-163.72 438,-153.63"/>
<polygon fill="#e4a504" stroke="#e4a504" stroke-width="3.28" points="441.19,-153.35 438,-144.25 434.82,-153.35 441.19,-153.35"/>
<text text-anchor="middle" x="459.5" y="-167" font-family="Arial" font-size="10.00" fill="#e4a504">82.09%</text>
<text text-anchor="middle" x="459.5" y="-156" font-family="Arial" font-size="10.00" fill="#e4a504">2027670×</text>
</g>
<!-- 7 -->
<g id="node10" class="node">
<title>7</title>
<polygon fill="#0d277a" stroke="#0d277a" points="436,-52 278,-52 278,0 436,0 436,-52"/>
<text text-anchor="middle" x="357" y="-40" font-family="Arial" font-size="10.00" fill="#ffffff">FlyingObject::getVelocity() const</text>
<text text-anchor="middle" x="357" y="-29" font-family="Arial" font-size="10.00" fill="#ffffff">5.97%</text>
<text text-anchor="middle" x="357" y="-18" font-family="Arial" font-size="10.00" fill="#ffffff">(5.97%)</text>
<text text-anchor="middle" x="357" y="-7" font-family="Arial" font-size="10.00" fill="#ffffff">46802611×</text>
</g>
<!-- 6&#45;&gt;7 -->
<g id="edge9" class="edge">
<title>6&#45;&gt;7</title>
<path fill="none" stroke="#0d277a" stroke-width="0.5" d="M415.44,-91.93C405.08,-80.42 392.76,-66.73 382.11,-54.9"/>
<polygon fill="#0d277a" stroke="#0d277a" stroke-width="0.5" points="382.97,-54.03 379.72,-52.25 381.15,-55.67 382.97,-54.03"/>
<text text-anchor="middle" x="432.5" y="-75" font-family="Arial" font-size="10.00" fill="#0d277a">5.97%</text>
<text text-anchor="middle" x="432.5" y="-64" font-family="Arial" font-size="10.00" fill="#0d277a">46801876×</text>
</g>
<!-- 9 -->
<g id="node11" class="node">
<title>9</title>
<polygon fill="#0d2078" stroke="#0d2078" points="591,-52 445,-52 445,0 591,0 591,-52"/>
<text text-anchor="middle" x="518" y="-40" font-family="Arial" font-size="10.00" fill="#ffffff">FlyingObject::getPoint() const</text>
<text text-anchor="middle" x="518" y="-29" font-family="Arial" font-size="10.00" fill="#ffffff">4.48%</text>
<text text-anchor="middle" x="518" y="-18" font-family="Arial" font-size="10.00" fill="#ffffff">(4.48%)</text>
<text text-anchor="middle" x="518" y="-7" font-family="Arial" font-size="10.00" fill="#ffffff">38700850×</text>
</g>
<!-- 6&#45;&gt;9 -->
<g id="edge10" class="edge">
<title>6&#45;&gt;9</title>
<path fill="none" stroke="#0d2078" stroke-width="0.5" d="M460.28,-91.93C470.51,-80.42 482.68,-66.73 493.2,-54.9"/>
<polygon fill="#0d2078" stroke="#0d2078" stroke-width="0.5" points="494.15,-55.68 495.56,-52.25 492.32,-54.05 494.15,-55.68"/>
<text text-anchor="middle" x="512" y="-75" font-family="Arial" font-size="10.00" fill="#0d2078">4.48%</text>
<text text-anchor="middle" x="512" y="-64" font-family="Arial" font-size="10.00" fill="#0d2078">38691196×</text>
</g>
<!-- 17 -->
<g id="node15" class="node">
<title>17</title>
<polygon fill="#0d1274" stroke="#0d1274" points="1306.5,-236 1129.5,-236 1129.5,-184 1306.5,-184 1306.5,-236"/>
<text text-anchor="middle" x="1218" y="-224" font-family="Arial" font-size="10.00" fill="#ffffff">drawSmallAsteroid(Point const&amp;, int)</text>
<text text-anchor="middle" x="1218" y="-213" font-family="Arial" font-size="10.00" fill="#ffffff">1.32%</text>
<text text-anchor="middle" x="1218" y="-202" font-family="Arial" font-size="10.00" fill="#ffffff">(0.00%)</text>
<text text-anchor="middle" x="1218" y="-191" font-family="Arial" font-size="10.00" fill="#ffffff">49600×</text>
</g>
<!-- 10&#45;&gt;17 -->
<g id="edge15" class="edge">
<title>10&#45;&gt;17</title>
<path fill="none" stroke="#0d1274" stroke-width="0.5" d="M1181.93,-275.93C1188.21,-264.61 1195.67,-251.19 1202.17,-239.5"/>
<polygon fill="#0d1274" stroke="#0d1274" stroke-width="0.5" points="1203.34,-239.9 1203.97,-236.25 1201.2,-238.71 1203.34,-239.9"/>
<text text-anchor="middle" x="1214.5" y="-259" font-family="Arial" font-size="10.00" fill="#0d1274">1.32%</text>
<text text-anchor="middle" x="1214.5" y="-248" font-family="Arial" font-size="10.00" fill="#0d1274">49600×</text>
</g>
<!-- 13 -->
<g id="node18" class="node">
<title>13</title>
<polygon fill="#0d1776" stroke="#0d1776" points="936.5,-236 749.5,-236 749.5,-184 936.5,-184 936.5,-236"/>
<text text-anchor="middle" x="843" y="-224" font-family="Arial" font-size="10.00" fill="#ffffff">drawMediumAsteroid(Point const&amp;, int)</text>
<text text-anchor="middle" x="843" y="-213" font-family="Arial" font-size="10.00" fill="#ffffff">2.48%</text>
<text text-anchor="middle" x="843" y="-202" font-family="Arial" font-size="10.00" fill="#ffffff">(1.49%)</text>
<text text-anchor="middle" x="843" y="-191" font-family="Arial" font-size="10.00" fill="#ffffff">30461×</text>
</g>
<!-- 14&#45;&gt;13 -->
<g id="edge17" class="edge">
<title>14&#45;&gt;13</title>
<path fill="none" stroke="#0d1776" stroke-width="0.5" d="M843,-275.93C843,-264.71 843,-251.42 843,-239.8"/>
<polygon fill="#0d1776" stroke="#0d1776" stroke-width="0.5" points="844.23,-239.75 843,-236.25 841.78,-239.75 844.23,-239.75"/>
<text text-anchor="middle" x="859.5" y="-259" font-family="Arial" font-size="10.00" fill="#0d1776">2.48%</text>
<text text-anchor="middle" x="859.5" y="-248" font-family="Arial" font-size="10.00" fill="#0d1776">30461×</text>
</g>
<!-- 25 -->
<g id="node26" class="node">
<title>25</title>
<polygon fill="#0d0f74" stroke="#0d0f74" points="1121,-236 945,-236 945,-184 1121,-184 1121,-236"/>
<text text-anchor="middle" x="1033" y="-224" font-family="Arial" font-size="10.00" fill="#ffffff">drawLargeAsteroid(Point const&amp;, int)</text>
<text text-anchor="middle" x="1033" y="-213" font-family="Arial" font-size="10.00" fill="#ffffff">0.67%</text>
<text text-anchor="middle" x="1033" y="-202" font-family="Arial" font-size="10.00" fill="#ffffff">(0.00%)</text>
<text text-anchor="middle" x="1033" y="-191" font-family="Arial" font-size="10.00" fill="#ffffff">20442×</text>
</g>
<!-- 26&#45;&gt;25 -->
<g id="edge25" class="edge">
<title>26&#45;&gt;25</title>
<path fill="none" stroke="#0d0f74" stroke-width="0.5" d="M1009.19,-275.93C1013.31,-264.71 1018.18,-251.42 1022.44,-239.8"/>
<polygon fill="#0d0f74" stroke="#0d0f74" stroke-width="0.5" points="1023.69,-239.96 1023.74,-236.25 1021.39,-239.11 1023.69,-239.96"/>
<text text-anchor="middle" x="1036.5" y="-259" font-family="Arial" font-size="10.00" fill="#0d0f74">0.67%</text>
<text text-anchor="middle" x="1036.5" y="-248" font-family="Arial" font-size="10.00" fill="#0d0f74">20442×</text>
</g>
<!-- 11 -->
<g id="node16" class="node">
<title>11</title>
<polygon fill="#0d1977" stroke="#0d1977" points="1110.5,-144 955.5,-144 955.5,-92 1110.5,-92 1110.5,-144"/>
<text text-anchor="middle" x="1033" y="-132" font-family="Arial" font-size="10.00" fill="#ffffff">rotate(Point&amp;, Point const&amp;, int)</text>
<text text-anchor="middle" x="1033" y="-121" font-family="Arial" font-size="10.00" fill="#ffffff">2.99%</text>
<text text-anchor="middle" x="1033" y="-110" font-family="Arial" font-size="10.00" fill="#ffffff">(2.99%)</text>
<text text-anchor="middle" x="1033" y="-99" font-family="Arial" font-size="10.00" fill="#ffffff">1009213×</text>
</g>
<!-- 17&#45;&gt;11 -->
<g id="edge18" class="edge">
<title>17&#45;&gt;11</title>
<path fill="none" stroke="#0d1274" stroke-width="0.5" d="M1166.47,-183.93C1142.01,-172.03 1112.77,-157.81 1087.9,-145.71"/>
<polygon fill="#0d1274" stroke="#0d1274" stroke-width="0.5" points="1088.26,-144.52 1084.58,-144.09 1087.19,-146.72 1088.26,-144.52"/>
<text text-anchor="middle" x="1166" y="-167" font-family="Arial" font-size="10.00" fill="#0d1274">1.32%</text>
<text text-anchor="middle" x="1166" y="-156" font-family="Arial" font-size="10.00" fill="#0d1274">446400×</text>
</g>
<!-- 12 -->
<g id="node17" class="node">
<title>12</title>
<polygon fill="#0d1977" stroke="#0d1977" points="712,-593 596,-593 596,-552 712,-552 712,-593"/>
<text text-anchor="middle" x="654" y="-581" font-family="Arial" font-size="10.00" fill="#ffffff">Velocity::getDy() const</text>
<text text-anchor="middle" x="654" y="-570" font-family="Arial" font-size="10.00" fill="#ffffff">2.99%</text>
<text text-anchor="middle" x="654" y="-559" font-family="Arial" font-size="10.00" fill="#ffffff">(2.99%)</text>
</g>
<!-- 13&#45;&gt;11 -->
<g id="edge16" class="edge">
<title>13&#45;&gt;11</title>
<path fill="none" stroke="#0d1174" stroke-width="0.5" d="M895.93,-183.93C921.04,-172.03 951.07,-157.81 976.62,-145.71"/>
<polygon fill="#0d1174" stroke="#0d1174" stroke-width="0.5" points="977.39,-146.7 980.03,-144.09 976.34,-144.48 977.39,-146.7"/>
<text text-anchor="middle" x="979" y="-167" font-family="Arial" font-size="10.00" fill="#0d1174">0.99%</text>
<text text-anchor="middle" x="979" y="-156" font-family="Arial" font-size="10.00" fill="#0d1174">335071×</text>
</g>
<!-- 16 -->
<g id="node19" class="node">
<title>16</title>
<polygon fill="#0d1375" stroke="#0d1375" points="228,-144 90,-144 90,-92 228,-92 228,-144"/>
<text text-anchor="middle" x="159" y="-132" font-family="Arial" font-size="10.00" fill="#ffffff">FlyingObject::FlyingObject()</text>
<text text-anchor="middle" x="159" y="-121" font-family="Arial" font-size="10.00" fill="#ffffff">1.49%</text>
<text text-anchor="middle" x="159" y="-110" font-family="Arial" font-size="10.00" fill="#ffffff">(1.49%)</text>
<text text-anchor="middle" x="159" y="-99" font-family="Arial" font-size="10.00" fill="#ffffff">1195×</text>
</g>
<!-- 18 -->
<g id="node20" class="node">
<title>18</title>
<polygon fill="#0d1074" stroke="#0d1074" points="276.5,-236 175.5,-236 175.5,-184 276.5,-184 276.5,-236"/>
<text text-anchor="middle" x="226" y="-224" font-family="Arial" font-size="10.00" fill="#ffffff">Asteroid::Asteroid()</text>
<text text-anchor="middle" x="226" y="-213" font-family="Arial" font-size="10.00" fill="#ffffff">0.89%</text>
<text text-anchor="middle" x="226" y="-202" font-family="Arial" font-size="10.00" fill="#ffffff">(0.00%)</text>
<text text-anchor="middle" x="226" y="-191" font-family="Arial" font-size="10.00" fill="#ffffff">715×</text>
</g>
<!-- 18&#45;&gt;16 -->
<g id="edge19" class="edge">
<title>18&#45;&gt;16</title>
<path fill="none" stroke="#0d1074" stroke-width="0.5" d="M207.34,-183.93C198.84,-172.52 188.75,-158.96 179.99,-147.2"/>
<polygon fill="#0d1074" stroke="#0d1074" stroke-width="0.5" points="180.87,-146.32 177.8,-144.25 178.9,-147.79 180.87,-146.32"/>
<text text-anchor="middle" x="215" y="-167" font-family="Arial" font-size="10.00" fill="#0d1074">0.89%</text>
<text text-anchor="middle" x="215" y="-156" font-family="Arial" font-size="10.00" fill="#0d1074">715×</text>
</g>
<!-- 19 -->
<g id="node21" class="node">
<title>19</title>
<polygon fill="#0d1375" stroke="#0d1375" points="895,-593 721,-593 721,-552 895,-552 895,-593"/>
<text text-anchor="middle" x="808" y="-581" font-family="Arial" font-size="10.00" fill="#ffffff">drawText(Point const&amp;, char const*)</text>
<text text-anchor="middle" x="808" y="-570" font-family="Arial" font-size="10.00" fill="#ffffff">1.49%</text>
<text text-anchor="middle" x="808" y="-559" font-family="Arial" font-size="10.00" fill="#ffffff">(1.49%)</text>
</g>
<!-- 20 -->
<g id="node22" class="node">
<title>20</title>
<polygon fill="#0d1375" stroke="#0d1375" points="1020,-593 904,-593 904,-552 1020,-552 1020,-593"/>
<text text-anchor="middle" x="962" y="-581" font-family="Arial" font-size="10.00" fill="#ffffff">Velocity::getDx() const</text>
<text text-anchor="middle" x="962" y="-570" font-family="Arial" font-size="10.00" fill="#ffffff">1.49%</text>
<text text-anchor="middle" x="962" y="-559" font-family="Arial" font-size="10.00" fill="#ffffff">(1.49%)</text>
</g>
<!-- 23 -->
<g id="node24" class="node">
<title>23</title>
<polygon fill="#0d0f74" stroke="#0d0f74" points="166,-236 0,-236 0,-184 166,-184 166,-236"/>
<text text-anchor="middle" x="83" y="-224" font-family="Arial" font-size="10.00" fill="#ffffff">Bullet::Bullet(Point, float, Velocity)</text>
<text text-anchor="middle" x="83" y="-213" font-family="Arial" font-size="10.00" fill="#ffffff">0.60%</text>
<text text-anchor="middle" x="83" y="-202" font-family="Arial" font-size="10.00" fill="#ffffff">(0.00%)</text>
<text text-anchor="middle" x="83" y="-191" font-family="Arial" font-size="10.00" fill="#ffffff">479×</text>
</g>
<!-- 22&#45;&gt;23 -->
<g id="edge21" class="edge">
<title>22&#45;&gt;23</title>
<path fill="none" stroke="#0d0f74" stroke-width="0.5" d="M83,-275.93C83,-264.71 83,-251.42 83,-239.8"/>
<polygon fill="#0d0f74" stroke="#0d0f74" stroke-width="0.5" points="84.23,-239.75 83,-236.25 81.78,-239.75 84.23,-239.75"/>
<text text-anchor="middle" x="97" y="-259" font-family="Arial" font-size="10.00" fill="#0d0f74">0.60%</text>
<text text-anchor="middle" x="97" y="-248" font-family="Arial" font-size="10.00" fill="#0d0f74">479×</text>
</g>
<!-- 23&#45;&gt;16 -->
<g id="edge22" class="edge">
<title>23&#45;&gt;16</title>
<path fill="none" stroke="#0d0f74" stroke-width="0.5" d="M104.17,-183.93C113.81,-172.52 125.25,-158.96 135.19,-147.2"/>
<polygon fill="#0d0f74" stroke="#0d0f74" stroke-width="0.5" points="136.36,-147.71 137.68,-144.25 134.49,-146.13 136.36,-147.71"/>
<text text-anchor="middle" x="145" y="-167" font-family="Arial" font-size="10.00" fill="#0d0f74">0.60%</text>
<text text-anchor="middle" x="145" y="-156" font-family="Arial" font-size="10.00" fill="#0d0f74">479×</text>
</g>
<!-- 24 -->
<g id="node25" class="node">
<title>24</title>
<polygon fill="#0d0f73" stroke="#0d0f73" points="358.5,-328 145.5,-328 145.5,-276 358.5,-276 358.5,-328"/>
<text text-anchor="middle" x="252" y="-316" font-family="Arial" font-size="10.00" fill="#ffffff">SmallAsteroid::SmallAsteroid(Point, Velocity)</text>
<text text-anchor="middle" x="252" y="-305" font-family="Arial" font-size="10.00" fill="#ffffff">0.51%</text>
<text text-anchor="middle" x="252" y="-294" font-family="Arial" font-size="10.00" fill="#ffffff">(0.00%)</text>
<text text-anchor="middle" x="252" y="-283" font-family="Arial" font-size="10.00" fill="#ffffff">409×</text>
</g>
<!-- 24&#45;&gt;18 -->
<g id="edge23" class="edge">
<title>24&#45;&gt;18</title>
<path fill="none" stroke="#0d0f73" stroke-width="0.5" d="M244.76,-275.93C241.52,-264.71 237.68,-251.42 234.32,-239.8"/>
<polygon fill="#0d0f73" stroke="#0d0f73" stroke-width="0.5" points="235.44,-239.27 233.29,-236.25 233.09,-239.95 235.44,-239.27"/>
<text text-anchor="middle" x="257" y="-259" font-family="Arial" font-size="10.00" fill="#0d0f73">0.51%</text>
<text text-anchor="middle" x="257" y="-248" font-family="Arial" font-size="10.00" fill="#0d0f73">409×</text>
</g>
<!-- 25&#45;&gt;11 -->
<g id="edge24" class="edge">
<title>25&#45;&gt;11</title>
<path fill="none" stroke="#0d0f74" stroke-width="0.5" d="M1033,-183.93C1033,-172.71 1033,-159.42 1033,-147.8"/>
<polygon fill="#0d0f74" stroke="#0d0f74" stroke-width="0.5" points="1034.23,-147.75 1033,-144.25 1031.78,-147.75 1034.23,-147.75"/>
<text text-anchor="middle" x="1052" y="-167" font-family="Arial" font-size="10.00" fill="#0d0f74">0.67%</text>
<text text-anchor="middle" x="1052" y="-156" font-family="Arial" font-size="10.00" fill="#0d0f74">224862×</text>
</g>
</g>
</svg>
